<svg width="100%" height="100%" xmlns="http://www.w3.org/2000/svg" viewBox="0 0 68.06 18.32" class="svg-line">
  <style>
    svg.svg-line path {
      fill: #fff;
    }
  </style>
  <path d="M64.598,13.832 C62.693,13.831 61.149,12.288 61.149,10.384 L61.149,9.122 C61.146,7.889 60.148,6.892 58.915,6.890 C57.683,6.892 56.684,7.889 56.682,9.122 C56.684,10.354 57.683,11.352 58.915,11.354 C59.072,11.354 59.223,11.338 59.366,11.308 C60.036,11.171 60.692,11.603 60.830,12.273 C60.967,12.943 60.535,13.598 59.865,13.736 C59.557,13.798 59.239,13.832 58.915,13.832 C56.312,13.831 54.205,11.723 54.204,9.122 C54.205,6.521 56.312,4.413 58.915,4.412 C61.518,4.413 63.627,6.521 63.627,9.122 L63.627,10.384 C63.628,10.919 64.061,11.353 64.598,11.354 C65.133,11.353 65.569,10.919 65.569,10.384 L65.569,9.122 C65.563,5.449 62.589,2.478 58.915,2.472 C55.241,2.478 52.269,5.449 52.262,9.122 C52.269,12.794 55.241,15.765 58.915,15.772 C59.821,15.772 60.678,15.593 61.462,15.268 L61.462,15.268 C62.094,15.005 62.820,15.305 63.082,15.937 C63.345,16.569 63.045,17.293 62.412,17.556 C61.335,18.003 60.153,18.249 58.918,18.249 C58.918,18.249 58.916,18.249 58.915,18.249 C53.872,18.248 49.783,14.164 49.782,9.122 C49.783,4.080 53.872,-0.005 58.915,-0.006 C63.959,-0.005 68.048,4.080 68.048,9.122 L68.048,10.384 C68.048,12.288 66.503,13.830 64.598,13.832 ZM45.511,14.527 C46.557,14.527 47.410,15.378 47.410,16.424 C47.410,17.472 46.557,18.323 45.511,18.323 L38.314,18.323 C37.269,18.323 36.417,17.472 36.417,16.424 L36.417,2.042 C36.417,0.995 37.268,0.144 38.314,0.144 L45.511,0.144 C46.559,0.144 47.410,0.995 47.410,2.042 C47.410,3.089 46.559,3.940 45.511,3.940 L40.215,3.940 L40.215,7.336 L45.511,7.336 C46.559,7.336 47.410,8.187 47.410,9.234 C47.410,10.280 46.559,11.131 45.511,11.131 L40.215,11.131 L40.215,14.527 L45.511,14.527 ZM31.966,18.323 C31.375,18.323 30.807,18.039 30.449,17.563 L23.075,7.527 L23.075,16.424 C23.075,17.472 22.224,18.323 21.176,18.323 C20.129,18.323 19.278,17.472 19.278,16.424 L19.278,2.042 C19.278,1.224 19.798,0.501 20.575,0.242 C20.770,0.176 20.974,0.144 21.177,0.144 C21.772,0.144 22.338,0.428 22.695,0.904 L30.071,10.940 L30.071,2.042 C30.071,0.995 30.923,0.144 31.969,0.144 C33.016,0.144 33.867,0.995 33.867,2.042 L33.867,16.424 C33.867,17.243 33.348,17.967 32.570,18.225 C32.374,18.290 32.171,18.323 31.966,18.323 ZM14.649,18.323 C13.601,18.323 12.750,17.472 12.750,16.424 L12.750,2.042 C12.750,0.995 13.601,0.144 14.649,0.144 C15.695,0.144 16.547,0.995 16.547,2.042 L16.547,16.424 C16.547,17.472 15.695,18.323 14.649,18.323 ZM9.105,18.323 L1.909,18.323 C0.862,18.323 0.011,17.472 0.011,16.424 L0.011,2.042 C0.011,0.995 0.862,0.144 1.909,0.144 C2.957,0.144 3.807,0.995 3.807,2.042 L3.807,14.527 L9.105,14.527 C10.152,14.527 11.003,15.378 11.003,16.424 C11.003,17.472 10.152,18.323 9.105,18.323 Z" />
</svg>
